<svg width="20" height="20" viewBox="0 0 20 20" fill="none" xmlns="http://www.w3.org/2000/svg">
<path d="M8.94268 3.05734C8.69264 2.80738 8.35356 2.66696 8.00001 2.66696C7.64646 2.66696 7.30738 2.80738 7.05734 3.05734L1.05734 9.05734C0.807383 9.30738 0.666962 9.64646 0.666962 10C0.666962 10.3536 0.807383 10.6926 1.05734 10.9427L7.05734 16.9427C7.30881 17.1856 7.64562 17.3199 7.99521 17.3169C8.34481 17.3139 8.67922 17.1736 8.92643 16.9264C9.17365 16.6792 9.31387 16.3448 9.31691 15.9952C9.31995 15.6456 9.18555 15.3088 8.94268 15.0573L5.33334 11.3333H18C18.3536 11.3333 18.6928 11.1929 18.9428 10.9428C19.1929 10.6928 19.3333 10.3536 19.3333 10C19.3333 9.64639 19.1929 9.30725 18.9428 9.0572C18.6928 8.80715 18.3536 8.66668 18 8.66668H5.33334L8.94268 4.94268C9.19264 4.69264 9.33306 4.35356 9.33306 4.00001C9.33306 3.64646 9.19264 3.30738 8.94268 3.05734Z" fill="white"/>
</svg>
