<svg width="24" height="24" viewBox="0 0 24 24" fill="none" xmlns="http://www.w3.org/2000/svg">
<g clip-path="url(#clip0_7_265)">
<path d="M20 4H4V6L9.81 10.36C8.04674 10.9414 6.58648 12.1992 5.75016 13.8568C4.91385 15.5144 4.76992 17.4363 5.35 19.2C5.63699 20.0737 6.09342 20.8822 6.69318 21.5794C7.29294 22.2765 8.02426 22.8486 8.84531 23.2628C9.66635 23.677 10.561 23.9253 11.4781 23.9935C12.3952 24.0616 13.3167 23.9483 14.19 23.66C15.5905 23.1997 16.8099 22.309 17.6744 21.1149C18.5388 19.9207 19.0043 18.4842 19.0043 17.01C19.0043 15.5358 18.5388 14.0993 17.6744 12.9051C16.8099 11.711 15.5905 10.8203 14.19 10.36L20 6V4ZM14.94 21.5L12 19.78L9.06 21.5L9.84 18.17L7.25 15.93L10.66 15.64L12 12.5L13.34 15.64L16.75 15.93L14.16 18.17L14.94 21.5Z" fill="#FFD233"/>
</g>
<defs>
<clipPath id="clip0_7_265">
<rect width="24" height="24" fill="white"/>
</clipPath>
</defs>
</svg>
