<svg width="20" height="20" viewBox="0 0 20 20" fill="none" xmlns="http://www.w3.org/2000/svg">
<path d="M11.0573 3.05733C11.3074 2.80737 11.6464 2.66695 12 2.66695C12.3535 2.66695 12.6926 2.80737 12.9427 3.05733L18.9427 9.05733C19.1926 9.30737 19.333 9.64645 19.333 10C19.333 10.3536 19.1926 10.6926 18.9427 10.9427L12.9427 16.9427C12.6912 17.1855 12.3544 17.3199 12.0048 17.3169C11.6552 17.3139 11.3208 17.1736 11.0736 16.9264C10.8264 16.6792 10.6861 16.3448 10.6831 15.9952C10.6801 15.6456 10.8144 15.3088 11.0573 15.0573L14.6667 11.3333H1.99999C1.64637 11.3333 1.30723 11.1929 1.05718 10.9428C0.807132 10.6928 0.666656 10.3536 0.666656 10C0.666656 9.64638 0.807132 9.30724 1.05718 9.05719C1.30723 8.80714 1.64637 8.66667 1.99999 8.66667H14.6667L11.0573 4.94267C10.8074 4.69263 10.6669 4.35355 10.6669 4C10.6669 3.64645 10.8074 3.30737 11.0573 3.05733Z" fill="white"/>
</svg>
